<mxfile host="app.diagrams.net" modified="2021-02-03T03:33:39.808Z" agent="5.0 (Windows NT 10.0; Win64; x64) AppleWebKit/537.36 (KHTML, like Gecko) Chrome/88.0.4324.104 Safari/537.36" etag="G8JvE54euRFjsQBManLL" version="14.2.7" type="github" pages="2">
  <diagram id="1ZPGJMuIz8dPiveHe6lE" name="Page-1">
    <mxGraphModel dx="1422" dy="762" grid="1" gridSize="10" guides="1" tooltips="1" connect="1" arrows="1" fold="1" page="1" pageScale="1" pageWidth="850" pageHeight="1100" math="0" shadow="0">
      <root>
        <mxCell id="0" />
        <mxCell id="1" parent="0" />
        <mxCell id="fN8DEdtBdsPqiW0FFyHP-2" value="Actor" style="shape=umlActor;verticalLabelPosition=bottom;verticalAlign=top;html=1;outlineConnect=0;" vertex="1" parent="1">
          <mxGeometry x="90" y="140" width="30" height="60" as="geometry" />
        </mxCell>
        <mxCell id="fN8DEdtBdsPqiW0FFyHP-5" value="Withdraw Money" style="ellipse;whiteSpace=wrap;html=1;" vertex="1" parent="1">
          <mxGeometry x="240" y="130" width="120" height="80" as="geometry" />
        </mxCell>
        <mxCell id="fN8DEdtBdsPqiW0FFyHP-6" value="" style="endArrow=classic;html=1;entryX=0;entryY=0.5;entryDx=0;entryDy=0;" edge="1" parent="1" source="fN8DEdtBdsPqiW0FFyHP-2" target="fN8DEdtBdsPqiW0FFyHP-5">
          <mxGeometry width="50" height="50" relative="1" as="geometry">
            <mxPoint x="420" y="280" as="sourcePoint" />
            <mxPoint x="470" y="230" as="targetPoint" />
          </mxGeometry>
        </mxCell>
        <mxCell id="fN8DEdtBdsPqiW0FFyHP-7" value="" style="shape=curlyBracket;whiteSpace=wrap;html=1;rounded=1;" vertex="1" parent="1">
          <mxGeometry x="370" y="110" width="20" height="120" as="geometry" />
        </mxCell>
        <mxCell id="fN8DEdtBdsPqiW0FFyHP-8" value="- Bank-Customer identifies by inserting his/her card in the Card Reader" style="text;html=1;align=center;verticalAlign=middle;resizable=0;points=[];autosize=1;" vertex="1" parent="1">
          <mxGeometry x="225" y="120" width="390" height="20" as="geometry" />
        </mxCell>
      </root>
    </mxGraphModel>
  </diagram>
  <diagram id="c-KXw_ARLd4D4g8uYa7D" name="Page-2">
    <mxGraphModel dx="1422" dy="762" grid="1" gridSize="10" guides="1" tooltips="1" connect="1" arrows="1" fold="1" page="1" pageScale="1" pageWidth="850" pageHeight="1100" math="0" shadow="0">
      <root>
        <mxCell id="Da5zi6DCgrO4t8-jBRT6-0" />
        <mxCell id="Da5zi6DCgrO4t8-jBRT6-1" parent="Da5zi6DCgrO4t8-jBRT6-0" />
        <mxCell id="Da5zi6DCgrO4t8-jBRT6-2" value="Actor" style="shape=umlActor;verticalLabelPosition=bottom;verticalAlign=top;html=1;outlineConnect=0;" vertex="1" parent="Da5zi6DCgrO4t8-jBRT6-1">
          <mxGeometry x="100" y="200" width="30" height="60" as="geometry" />
        </mxCell>
        <mxCell id="Da5zi6DCgrO4t8-jBRT6-3" value=":Object" style="rounded=0;whiteSpace=wrap;html=1;" vertex="1" parent="Da5zi6DCgrO4t8-jBRT6-1">
          <mxGeometry x="180" y="90" width="120" height="60" as="geometry" />
        </mxCell>
        <mxCell id="Da5zi6DCgrO4t8-jBRT6-4" value=":Object" style="rounded=0;whiteSpace=wrap;html=1;" vertex="1" parent="Da5zi6DCgrO4t8-jBRT6-1">
          <mxGeometry x="390" y="90" width="110" height="60" as="geometry" />
        </mxCell>
        <mxCell id="Da5zi6DCgrO4t8-jBRT6-5" value=":Object" style="rounded=0;whiteSpace=wrap;html=1;" vertex="1" parent="Da5zi6DCgrO4t8-jBRT6-1">
          <mxGeometry x="570" y="90" width="120" height="60" as="geometry" />
        </mxCell>
        <mxCell id="Da5zi6DCgrO4t8-jBRT6-6" value="" style="endArrow=none;dashed=1;html=1;entryX=0.5;entryY=1;entryDx=0;entryDy=0;" edge="1" parent="Da5zi6DCgrO4t8-jBRT6-1" target="Da5zi6DCgrO4t8-jBRT6-3">
          <mxGeometry width="50" height="50" relative="1" as="geometry">
            <mxPoint x="240" y="430" as="sourcePoint" />
            <mxPoint x="450" y="370" as="targetPoint" />
          </mxGeometry>
        </mxCell>
        <mxCell id="Da5zi6DCgrO4t8-jBRT6-7" value="" style="endArrow=none;dashed=1;html=1;entryX=0.5;entryY=1;entryDx=0;entryDy=0;" edge="1" parent="Da5zi6DCgrO4t8-jBRT6-1">
          <mxGeometry width="50" height="50" relative="1" as="geometry">
            <mxPoint x="444.5" y="420" as="sourcePoint" />
            <mxPoint x="444.5" y="140" as="targetPoint" />
          </mxGeometry>
        </mxCell>
        <mxCell id="Da5zi6DCgrO4t8-jBRT6-8" value="" style="endArrow=none;dashed=1;html=1;entryX=0.5;entryY=1;entryDx=0;entryDy=0;" edge="1" parent="Da5zi6DCgrO4t8-jBRT6-1">
          <mxGeometry width="50" height="50" relative="1" as="geometry">
            <mxPoint x="629.5" y="430" as="sourcePoint" />
            <mxPoint x="629.5" y="150" as="targetPoint" />
            <Array as="points" />
          </mxGeometry>
        </mxCell>
        <mxCell id="Da5zi6DCgrO4t8-jBRT6-9" value="" style="endArrow=classic;html=1;" edge="1" parent="Da5zi6DCgrO4t8-jBRT6-1" source="Da5zi6DCgrO4t8-jBRT6-2">
          <mxGeometry width="50" height="50" relative="1" as="geometry">
            <mxPoint x="400" y="420" as="sourcePoint" />
            <mxPoint x="240" y="230" as="targetPoint" />
          </mxGeometry>
        </mxCell>
        <mxCell id="Da5zi6DCgrO4t8-jBRT6-10" value="Use Case Name" style="edgeLabel;html=1;align=center;verticalAlign=middle;resizable=0;points=[];" vertex="1" connectable="0" parent="Da5zi6DCgrO4t8-jBRT6-9">
          <mxGeometry x="-0.3818" y="1" relative="1" as="geometry">
            <mxPoint as="offset" />
          </mxGeometry>
        </mxCell>
        <mxCell id="Da5zi6DCgrO4t8-jBRT6-11" value="" style="rounded=0;whiteSpace=wrap;html=1;" vertex="1" parent="Da5zi6DCgrO4t8-jBRT6-1">
          <mxGeometry x="240" y="220" width="10" height="100" as="geometry" />
        </mxCell>
        <mxCell id="Da5zi6DCgrO4t8-jBRT6-12" value="MethodName(params) : RetType" style="endArrow=classic;html=1;exitX=1;exitY=0.5;exitDx=0;exitDy=0;" edge="1" parent="Da5zi6DCgrO4t8-jBRT6-1" source="Da5zi6DCgrO4t8-jBRT6-11">
          <mxGeometry width="50" height="50" relative="1" as="geometry">
            <mxPoint x="400" y="420" as="sourcePoint" />
            <mxPoint x="450" y="270" as="targetPoint" />
          </mxGeometry>
        </mxCell>
        <mxCell id="Da5zi6DCgrO4t8-jBRT6-13" value="Self call" style="endArrow=classic;html=1;" edge="1" parent="Da5zi6DCgrO4t8-jBRT6-1">
          <mxGeometry width="50" height="50" relative="1" as="geometry">
            <mxPoint x="240" y="350" as="sourcePoint" />
            <mxPoint x="240" y="390" as="targetPoint" />
            <Array as="points">
              <mxPoint x="290" y="350" />
              <mxPoint x="290" y="390" />
            </Array>
          </mxGeometry>
        </mxCell>
        <mxCell id="Da5zi6DCgrO4t8-jBRT6-14" value="" style="rounded=0;whiteSpace=wrap;html=1;" vertex="1" parent="Da5zi6DCgrO4t8-jBRT6-1">
          <mxGeometry x="220" y="380" width="20" height="60" as="geometry" />
        </mxCell>
      </root>
    </mxGraphModel>
  </diagram>
</mxfile>
